# xmcd
#
# Track frame offsets: 
#        150
#        14420
#        31335
#        48928
#        65360
#        82369
#        100007
#        116155
#        132975
#        147671
#        162279
#        182890
#        198957
#
# Disc length: 2841 seconds
#
# Revision: 0
# Processed by: cddbd v1.5.2PL0 Copyright (c) Steve Scherf et al.
# Submitted via: ExactAudioCopy v0.95b4
#
DISCID=bb0b170d
DTITLE=Klaidonis - To jau nepateiks neviens
DYEAR=2007
DGENRE=Country
TTITLE0=Tik tu un es
TTITLE1=Labie veèi
TTITLE2=Daudz ir iets...
TTITLE3=Prom laukos
TTITLE4=Vecais skroderis
TTITLE5=Meitenei sveðumâ
TTITLE6=Kâ arvien
TTITLE7=To jau nepateiks neviens
TTITLE8=Randevu
TTITLE9=Kâds tu bûsi
TTITLE10=Ja es kâdreiz...
TTITLE11=Var jau bût
TTITLE12=My vow to you
EXTD=
EXTT0=
EXTT1=
EXTT2=
EXTT3=
EXTT4=
EXTT5=
EXTT6=
EXTT7=
EXTT8=
EXTT9=
EXTT10=
EXTT11=
EXTT12=
PLAYORDER=
